# xmcd
#
# Track frame offsets: 
#        150
#        17652
#        39393
#        58133
#        74288
#        98702
#        124519
#        148296
#        169256
#        194662
#        211387
#        230894
#        252800
#
# Disc length: 3739 seconds
#
# Revision: 0
# Processed by: cddbd v1.5.2PL0 Copyright (c) Steve Scherf et al.
# Submitted via: ExactAudioCopy v0.95b4
#
DISCID=c30e990d
DTITLE=The Band Of Heathens - Live From Momo's
DYEAR=2006
DGENRE=Folk/Rock
TTITLE0=One More Step
TTITLE1=Bumblebee
TTITLE2=No Great Mystery
TTITLE3=Judas 'Scariot Blues
TTITLE4=Ain't No More Cane
TTITLE5=Odysseus
TTITLE6=Hangin' Tree
TTITLE7=Broken Heartstring
TTITLE8=Walking and Talking
TTITLE9=Anywhere I Lay My Head
TTITLE10=Here's To You
TTITLE11=Keep On Trying
TTITLE12=Jenny Was a Keeper
EXTD=
EXTT0=
EXTT1=
EXTT2=
EXTT3=
EXTT4=
EXTT5=
EXTT6=
EXTT7=
EXTT8=
EXTT9=
EXTT10=
EXTT11=
EXTT12=
PLAYORDER=
